<?xml version="1.0" encoding="utf-8"?>
<!-- Generator: Adobe Illustrator 19.0.0, SVG Export Plug-In . SVG Version: 6.00 Build 0)  -->
<svg version="1.1" id="Layer_1" xmlns="http://www.w3.org/2000/svg" xmlns:xlink="http://www.w3.org/1999/xlink" x="0px" y="0px"
	 viewBox="0 0 168 112" style="enable-background:new 0 0 168 112;" xml:space="preserve">
<style type="text/css">
	.st0{fill:#FCB717;}
	.st1{fill:none;stroke:#FCB717;stroke-width:1.75;stroke-miterlimit:10;}
	.st2{fill:#010101;}
	.st3{fill:#232323;}
	.st4{fill:#C0BEC4;}
	.st5{fill:#DFE7F5;}
	.st6{fill:#CFDBF0;}
	.st7{fill:#07273B;}
	.st8{fill:#FFFFFF;}
	.st9{fill:#0E141E;}
</style>
<rect id="XMLID_190_" x="16.6" y="5.3" class="st0" width="81" height="93.1"/>
<rect id="XMLID_189_" x="97.7" y="6.1" class="st1" width="49.4" height="91.6"/>
<g id="XMLID_153_">
	<path id="XMLID_186_" class="st2" d="M108.6,23.9l0.5,2.8h-3l-0.8,4h-3l4.1-18.2l1.2,6.3l-0.9,5H108.6z M110.5,30.8l-3.8-19.5h2.5
		l4.3,19.5H110.5z"/>
	<path id="XMLID_182_" class="st2" d="M118.3,30.9c-0.8-0.1-1.6-0.3-2.3-0.7c-0.7-0.4-1.3-1-1.7-1.9c-0.2-0.3-0.3-0.8-0.3-1.3
		c-0.1-0.5-0.1-0.9-0.1-1.3h2.8c0.1,1.4,0.6,2.1,1.6,2.3V30.9z M120,20.2c0.5,0.5,1,1,1.4,1.4c0.4,0.4,0.7,0.9,1,1.4
		c0.3,0.5,0.5,1,0.6,1.5c0.2,0.5,0.2,1.1,0.2,1.8c0,0.7-0.1,1.3-0.3,1.9c-0.2,0.6-0.5,1.1-0.9,1.5c-0.4,0.4-0.9,0.7-1.4,1
		c-0.5,0.2-1.1,0.4-1.8,0.4v-2.8c0.5-0.1,0.8-0.2,1.1-0.6c0.3-0.3,0.4-0.7,0.4-1.2c0-0.4-0.1-0.8-0.2-1.1c-0.1-0.3-0.3-0.7-0.5-1
		c-0.2-0.3-0.5-0.6-0.8-1c-0.3-0.3-0.7-0.7-1.1-1.1c-0.5-0.5-1-1-1.5-1.5c-0.4-0.5-0.8-0.9-1.1-1.4c-0.3-0.5-0.6-1-0.7-1.5
		c-0.2-0.5-0.3-1.1-0.3-1.7c0-0.6,0.1-1.2,0.3-1.8c0.2-0.5,0.5-1,0.9-1.5c0.4-0.4,0.8-0.8,1.3-1c0.5-0.3,1-0.4,1.6-0.5v2.7
		c-0.4,0.1-0.7,0.3-0.9,0.6c-0.2,0.3-0.3,0.7-0.3,1.2c0,0.4,0.1,0.8,0.2,1.2c0.2,0.4,0.4,0.7,0.6,1.1c0.3,0.4,0.6,0.7,0.9,1.1
		C119.2,19.4,119.5,19.8,120,20.2z M118.8,11.2c1.1,0,2.1,0.4,2.8,1.2c0.8,0.8,1.2,1.8,1.4,3.2c0,0.1,0,0.2,0,0.3c0,0.1,0,0.2,0,0.4
		h-2.9c0-0.2-0.1-0.5-0.1-0.7c-0.1-0.3-0.1-0.5-0.2-0.7c-0.1-0.2-0.2-0.4-0.4-0.6c-0.2-0.2-0.4-0.3-0.6-0.3V11.2z"/>
	<path id="XMLID_179_" class="st2" d="M105.3,31.4v19.5h-3V31.4H105.3z M111,39.4c-0.2,0.3-0.4,0.5-0.6,0.7
		c-0.2,0.2-0.5,0.4-0.7,0.5c0.6,0.3,1,0.8,1.3,1.4c0.3,0.6,0.5,1.4,0.5,2.5v1.1c0,3.6-1.8,5.3-5.3,5.3h-0.3v-3h0.5
		c0.5,0,0.9-0.1,1.2-0.2c0.3-0.1,0.5-0.4,0.7-0.6c0.2-0.3,0.2-0.6,0.3-1c0-0.4,0.1-0.8,0.1-1.3c0-0.5,0-0.9-0.1-1.3
		c-0.1-0.4-0.2-0.6-0.3-0.9c-0.2-0.2-0.4-0.4-0.7-0.5c-0.3-0.1-0.7-0.2-1.2-0.2h-0.5v-2.7h0.6c0.8,0,1.4-0.2,1.7-0.6
		c0.3-0.4,0.5-1,0.5-2c0-0.9-0.2-1.5-0.5-1.9c-0.4-0.4-1-0.6-1.8-0.6h-0.5v-2.8h0.6c1.7,0,3,0.5,3.9,1.5c0.8,0.9,1.2,2,1.2,3.5v0.7
		C111.5,38,111.3,38.8,111,39.4z"/>
	<path id="XMLID_175_" class="st2" d="M115.4,42.4v8.4h-3V31.4h3v8.2h4.4v2.8H115.4z M120.8,31.4v2.8H116v-2.8H120.8z M116,47.8h4.8
		v3H116V47.8z"/>
	<path id="XMLID_171_" class="st2" d="M125.9,51c-0.8-0.1-1.6-0.3-2.3-0.7c-0.7-0.4-1.3-1-1.7-1.9c-0.2-0.3-0.3-0.8-0.3-1.3
		c-0.1-0.5-0.1-0.9-0.1-1.3h2.8c0.1,1.4,0.6,2.1,1.6,2.3V51z M127.6,40.2c0.5,0.5,1,1,1.4,1.4c0.4,0.4,0.7,0.9,1,1.4
		c0.3,0.5,0.5,1,0.6,1.5c0.2,0.5,0.2,1.1,0.2,1.8c0,0.7-0.1,1.3-0.3,1.9c-0.2,0.6-0.5,1.1-0.9,1.5c-0.4,0.4-0.9,0.7-1.4,1
		c-0.5,0.2-1.1,0.4-1.8,0.4v-2.8c0.5-0.1,0.8-0.2,1.1-0.6c0.3-0.3,0.4-0.7,0.4-1.2c0-0.4-0.1-0.8-0.2-1.1c-0.1-0.3-0.3-0.7-0.5-1
		c-0.2-0.3-0.5-0.6-0.8-1c-0.3-0.3-0.7-0.7-1.1-1.1c-0.5-0.5-1-1-1.5-1.5c-0.4-0.5-0.8-0.9-1.1-1.4c-0.3-0.5-0.6-1-0.7-1.5
		c-0.2-0.5-0.3-1.1-0.3-1.7c0-0.6,0.1-1.2,0.3-1.8c0.2-0.5,0.5-1,0.9-1.5c0.4-0.4,0.8-0.8,1.3-1c0.5-0.3,1-0.4,1.6-0.5V34
		c-0.4,0.1-0.7,0.3-0.9,0.6c-0.2,0.3-0.3,0.7-0.3,1.2c0,0.4,0.1,0.8,0.2,1.2c0.2,0.4,0.4,0.7,0.6,1.1c0.3,0.4,0.6,0.7,0.9,1.1
		C126.8,39.5,127.2,39.8,127.6,40.2z M126.5,31.3c1.1,0,2.1,0.4,2.8,1.2c0.8,0.8,1.2,1.8,1.4,3.2c0,0.1,0,0.2,0,0.3
		c0,0.1,0,0.2,0,0.4h-2.9c0-0.2-0.1-0.5-0.1-0.7c-0.1-0.3-0.1-0.5-0.2-0.7c-0.1-0.2-0.2-0.4-0.4-0.6c-0.2-0.2-0.4-0.3-0.6-0.3V31.3z
		"/>
	<path id="XMLID_168_" class="st2" d="M140.6,31.4v2.8h-9.4v-2.8H140.6z M137.5,34.7v16.1h-3V34.7H137.5z"/>
	<path id="XMLID_165_" class="st2" d="M108.6,64l0.5,2.8h-3l-0.8,4h-3l4.1-18.2l1.2,6.3l-0.9,5H108.6z M110.5,70.9l-3.8-19.5h2.5
		l4.3,19.5H110.5z"/>
	<path id="XMLID_161_" class="st2" d="M118.3,71c-0.8-0.1-1.6-0.3-2.3-0.7c-0.7-0.4-1.3-1-1.7-1.9c-0.2-0.3-0.3-0.8-0.3-1.3
		c-0.1-0.5-0.1-0.9-0.1-1.3h2.8c0.1,1.4,0.6,2.1,1.6,2.3V71z M120,60.3c0.5,0.5,1,1,1.4,1.4c0.4,0.4,0.7,0.9,1,1.4
		c0.3,0.5,0.5,1,0.6,1.5c0.2,0.5,0.2,1.1,0.2,1.8c0,0.7-0.1,1.3-0.3,1.9c-0.2,0.6-0.5,1.1-0.9,1.5c-0.4,0.4-0.9,0.7-1.4,1
		c-0.5,0.2-1.1,0.4-1.8,0.4v-2.8c0.5-0.1,0.8-0.2,1.1-0.6c0.3-0.3,0.4-0.7,0.4-1.2c0-0.4-0.1-0.8-0.2-1.1c-0.1-0.3-0.3-0.7-0.5-1
		c-0.2-0.3-0.5-0.6-0.8-1c-0.3-0.3-0.7-0.7-1.1-1.1c-0.5-0.5-1-1-1.5-1.5c-0.4-0.5-0.8-0.9-1.1-1.4c-0.3-0.5-0.6-1-0.7-1.5
		c-0.2-0.5-0.3-1.1-0.3-1.7c0-0.6,0.1-1.2,0.3-1.8c0.2-0.5,0.5-1,0.9-1.5c0.4-0.4,0.8-0.8,1.3-1c0.5-0.3,1-0.4,1.6-0.5v2.7
		c-0.4,0.1-0.7,0.3-0.9,0.6c-0.2,0.3-0.3,0.7-0.3,1.2c0,0.4,0.1,0.8,0.2,1.2c0.2,0.4,0.4,0.7,0.6,1.1c0.3,0.4,0.6,0.7,0.9,1.1
		C119.2,59.5,119.5,59.9,120,60.3z M118.8,51.4c1.1,0,2.1,0.4,2.8,1.2c0.8,0.8,1.2,1.8,1.4,3.2c0,0.1,0,0.2,0,0.3c0,0.1,0,0.2,0,0.4
		h-2.9c0-0.2-0.1-0.5-0.1-0.7c-0.1-0.3-0.1-0.5-0.2-0.7c-0.1-0.2-0.2-0.4-0.4-0.6c-0.2-0.2-0.4-0.3-0.6-0.3V51.4z"/>
	<path id="XMLID_158_" class="st2" d="M106.6,91.1c-0.6,0-1.1-0.2-1.6-0.4c-0.5-0.2-1-0.5-1.4-0.9c-0.9-0.9-1.4-2-1.4-3.3v-15h3
		v14.8c0,1.1,0.4,1.7,1.3,1.9V91.1z M111.5,71.5v15c0,1.3-0.5,2.4-1.4,3.3c-0.8,0.8-1.8,1.2-3,1.3v-3c0.9-0.1,1.3-0.8,1.3-1.9V71.5
		H111.5z"/>
	<path id="XMLID_154_" class="st2" d="M116.6,91.1c-0.8-0.1-1.6-0.3-2.3-0.7c-0.7-0.4-1.3-1-1.7-1.9c-0.2-0.3-0.3-0.8-0.3-1.3
		c-0.1-0.5-0.1-0.9-0.1-1.3h2.8c0.1,1.4,0.6,2.1,1.6,2.3V91.1z M118.3,80.4c0.5,0.5,1,1,1.4,1.4c0.4,0.4,0.7,0.9,1,1.4
		c0.3,0.5,0.5,1,0.6,1.5c0.2,0.5,0.2,1.1,0.2,1.8c0,0.7-0.1,1.3-0.3,1.9c-0.2,0.6-0.5,1.1-0.9,1.5c-0.4,0.4-0.9,0.7-1.4,1
		c-0.5,0.2-1.1,0.4-1.8,0.4v-2.8c0.5-0.1,0.8-0.2,1.1-0.6c0.3-0.3,0.4-0.7,0.4-1.2c0-0.4-0.1-0.8-0.2-1.1c-0.1-0.3-0.3-0.7-0.5-1
		c-0.2-0.3-0.5-0.6-0.8-1c-0.3-0.3-0.7-0.7-1.1-1.1c-0.5-0.5-1-1-1.5-1.5c-0.4-0.5-0.8-0.9-1.1-1.4c-0.3-0.5-0.6-1-0.7-1.5
		c-0.2-0.5-0.3-1.1-0.3-1.7c0-0.6,0.1-1.2,0.3-1.8c0.2-0.5,0.5-1,0.9-1.5c0.4-0.4,0.8-0.8,1.3-1c0.5-0.3,1-0.4,1.6-0.5v2.7
		c-0.4,0.1-0.7,0.3-0.9,0.6c-0.2,0.3-0.3,0.7-0.3,1.2c0,0.4,0.1,0.8,0.2,1.2c0.2,0.4,0.4,0.7,0.6,1.1c0.3,0.4,0.6,0.7,0.9,1.1
		C117.5,79.6,117.8,80,118.3,80.4z M117.1,71.5c1.1,0,2.1,0.4,2.8,1.2c0.8,0.8,1.2,1.8,1.4,3.2c0,0.1,0,0.2,0,0.3c0,0.1,0,0.2,0,0.4
		h-2.9c0-0.2-0.1-0.5-0.1-0.7c-0.1-0.3-0.1-0.5-0.2-0.7c-0.1-0.2-0.2-0.4-0.4-0.6c-0.2-0.2-0.4-0.3-0.6-0.3V71.5z"/>
</g>
<g id="XMLID_96_">
	<g id="XMLID_149_">
		
			<rect id="XMLID_152_" x="23.8" y="40.4" transform="matrix(-0.1635 -0.9865 0.9865 -0.1635 -9.9271 78.683)" class="st3" width="9.1" height="6.4"/>
		
			<rect id="XMLID_151_" x="24.6" y="41.9" transform="matrix(-0.1635 -0.9865 0.9865 -0.1635 -7.0497 80.4037)" width="11.9" height="2.6"/>
		
			<rect id="XMLID_150_" x="27.9" y="39" transform="matrix(-0.9866 0.1634 -0.1634 -0.9866 63.2557 81.9412)" class="st4" width="0.8" height="9.1"/>
	</g>
	<g id="XMLID_145_">
		
			<rect id="XMLID_148_" x="82.5" y="40.4" transform="matrix(0.1635 -0.9865 0.9865 0.1635 29.8923 122.3556)" class="st3" width="9.1" height="6.4"/>
		
			<rect id="XMLID_147_" x="79" y="41.9" transform="matrix(0.1635 -0.9865 0.9865 0.1635 28.4334 119.9159)" width="11.9" height="2.6"/>
		
			<rect id="XMLID_146_" x="86.8" y="39" transform="matrix(0.9866 0.1634 -0.1634 0.9866 8.2933 -13.6702)" class="st4" width="0.8" height="9.1"/>
	</g>
	<path id="XMLID_144_" class="st5" d="M57.5,27.5l-15.3,0.1c-3.2,0-6,0.9-8.1,2.5C32,31.8,31,34.1,30.9,37c0,0.7,0,1.4,0.1,2.1
		c0.5,3.5,1,8.6,3.4,11.7c2.2,3,5.8,3.5,7.9,3.5c0.1,0,0.2,0,0.2,0c5,0,8.4,0.5,9.6-2.2c0.2-0.4,5.6-5.9,5.3-6.2"/>
	<path id="XMLID_143_" class="st6" d="M57.5,27.5L73,27.6c3.2,0,6,0.9,8.1,2.5c2.1,1.7,3.1,3.9,3.2,6.9c0,0.7,0,1.4-0.1,2.1
		c-0.5,3.5-1,8.6-3.4,11.7c-2.2,3-5.8,3.5-7.9,3.5c-0.1,0-0.2,0-0.2,0c-5,0-8.5-0.2-9.7-3c-0.2-0.4-5.2-5-5.4-5.5"/>
	<path id="XMLID_139_" d="M33.2,56.2c3.7,1,6.9,1.9,10.1,2.9c0.7-2.4-0.2-3.4-2-3.9c-1.5-0.4-3.1-0.9-4.5-1.4
		c-2.8-1.1-4.6-3.1-5.1-6.1c-0.2-0.9-0.2-1.9-0.5-2.7c-3.5-8.7,1.1-15.3,5.8-21.8c3.5-4.8,9-5.7,14.3-6.7c5.5-1,10.9-0.3,16.4,0.8
		c6,1.3,10,4.7,12.8,9.9c0.5,0.9,0.6,2.1,1.3,2.7c4.8,4.3,3.8,9.8,2.6,14.8c-1.9,7.5-4.4,14.8-6.8,22.1c-1.2,3.7-4.1,5.9-7.7,7.2
		c-8.4,3-16.8,2.9-25.2-0.3c-3.3-1.3-5.8-3.4-7.1-6.7C36.2,63.6,34.7,60,33.2,56.2z M57.8,27.4c-7.7-0.1-15.3,0.5-22.5,3.7
		c-3.2,1.4-4.4,3.9-3.9,7.3c0.4,2.4,1.1,4.8,1.3,7.2c0.3,4.3,2.6,6.6,6.6,7.6c1.4,0.3,2.7,0.8,4.1,1c5.4,1,7.6-0.1,10.2-4.9
		c0.4-0.7,0.7-1.3,1.2-1.9c1.6-1.9,3.9-2,5.5,0c0.8,1,1.1,2.4,2,3.4c1,1.2,2.1,2.7,3.4,3.1c5.2,1.6,10-0.1,14.3-2.9
		c1-0.6,1.6-2.1,1.9-3.3c0.7-2.7,1.1-5.5,1.6-8.2c0.8-5.1-0.4-7.2-5.3-9C71.7,27.8,64.8,27.3,57.8,27.4z M62,54.4
		c-1-1.7-1.8-3.4-2.9-4.9c-0.4-0.5-2.1-0.8-2.4-0.5c-1.5,1.7-2.7,3.6-3.9,5.4C55.9,54.4,58.8,54.4,62,54.4z"/>
	<rect id="XMLID_138_" x="51.9" y="77.5" class="st0" width="11.7" height="4.7"/>
	<rect id="XMLID_137_" x="51.2" y="76.6" width="13" height="4.7"/>
	<g id="XMLID_134_">
		<path id="XMLID_136_" class="st5" d="M52.9,58.9L34.6,74.5c-2.7,2.3-0.5,4.1,4.8,4.1h18.3V57.2C55.9,57.2,54.2,57.8,52.9,58.9z"/>
		<path id="XMLID_135_" class="st6" d="M80.8,74.5L62.5,58.9c-1.3-1.1-3.1-1.7-4.8-1.7v21.3h18.3C81.3,78.6,83.4,76.7,80.8,74.5z"/>
	</g>
	<path id="XMLID_133_" class="st3" d="M39.4,79.4c-5.3,0-7.5-1.7-4.8-3.8l18.3-14.4c2.7-2.1,7-2.1,9.7,0l18.3,14.4
		c2.7,2.1,0.5,3.8-4.8,3.8H39.4z"/>
	<g id="XMLID_118_">
		<g id="XMLID_126_">
			
				<ellipse id="XMLID_132_" transform="matrix(-0.5 0.866 -0.866 -0.5 171.0134 48.1497)" class="st7" cx="71.6" cy="73.4" rx="10.6" ry="3.3"/>
			<rect id="XMLID_131_" x="65.4" y="70.9" transform="matrix(-0.5 0.866 -0.866 -0.5 179.695 48.1497)" width="21.2" height="10"/>
			<ellipse id="XMLID_130_" transform="matrix(-0.5 0.866 -0.866 -0.5 188.3765 48.1499)" cx="80.3" cy="78.5" rx="10.6" ry="3.3"/>
			<ellipse id="XMLID_129_" transform="matrix(-0.5 0.866 -0.866 -0.5 173.9072 48.1497)" cx="73.1" cy="74.3" rx="10.6" ry="3.3"/>
			
				<ellipse id="XMLID_128_" transform="matrix(-0.5 0.866 -0.866 -0.5 188.3767 48.1504)" class="st0" cx="80.3" cy="78.5" rx="9.3" ry="2.4"/>
			<path id="XMLID_127_" class="st0" d="M70.2,72.6c2.8-4.9,6.3-8.2,8-7.6l-1.3-0.7c-1.6-0.9-5.3,2.4-8.2,7.5
				c-2.9,5.1-4,9.9-2.4,10.8l1.3,0.7C66.2,82.2,67.3,77.5,70.2,72.6z"/>
		</g>
		<g id="XMLID_119_">
			
				<ellipse id="XMLID_125_" transform="matrix(0.5 0.866 -0.866 0.5 85.4894 -1.1872)" class="st7" cx="43.8" cy="73.4" rx="10.6" ry="3.3"/>
			<rect id="XMLID_124_" x="28.8" y="70.9" transform="matrix(0.5 0.866 -0.866 0.5 85.4894 3.8251)" width="21.2" height="10"/>
			<ellipse id="XMLID_123_" transform="matrix(0.5 0.866 -0.866 0.5 85.4893 8.8373)" cx="35.1" cy="78.5" rx="10.6" ry="3.3"/>
			<ellipse id="XMLID_122_" transform="matrix(0.5 0.866 -0.866 0.5 85.4894 0.4836)" cx="42.3" cy="74.3" rx="10.6" ry="3.3"/>
			
				<ellipse id="XMLID_121_" transform="matrix(0.5 0.866 -0.866 0.5 85.4892 8.8373)" class="st0" cx="35.1" cy="78.5" rx="9.3" ry="2.4"/>
			<path id="XMLID_120_" class="st0" d="M45.2,72.6c-2.8-4.9-6.3-8.2-8-7.6l1.3-0.7c1.6-0.9,5.3,2.4,8.2,7.5c2.9,5.1,4,9.9,2.4,10.8
				l-1.3,0.7C49.1,82.2,48,77.5,45.2,72.6z"/>
		</g>
	</g>
	<g id="XMLID_97_">
		<circle id="XMLID_117_" class="st8" cx="57.7" cy="69.9" r="8.2"/>
		<circle id="XMLID_116_" class="st9" cx="57.7" cy="69.9" r="7.5"/>
		<circle id="XMLID_115_" class="st8" cx="57.7" cy="69.9" r="6.6"/>
		<circle id="XMLID_114_" class="st9" cx="57.7" cy="69.9" r="0.7"/>
		<circle id="XMLID_113_" class="st9" cx="57.7" cy="67.4" r="0.7"/>
		<circle id="XMLID_112_" class="st9" cx="57.7" cy="64.8" r="0.7"/>
		<circle id="XMLID_111_" class="st9" cx="57.7" cy="75" r="0.7"/>
		<circle id="XMLID_110_" class="st9" cx="54.1" cy="66.3" r="0.7"/>
		<circle id="XMLID_109_" class="st9" cx="61.3" cy="73.5" r="0.7"/>
		<circle id="XMLID_108_" class="st9" cx="52.6" cy="69.9" r="0.7"/>
		<circle id="XMLID_107_" class="st9" cx="62.8" cy="69.9" r="0.7"/>
		<circle id="XMLID_106_" class="st9" cx="54.1" cy="73.5" r="0.7"/>
		<circle id="XMLID_105_" class="st9" cx="61.3" cy="66.3" r="0.7"/>
		<circle id="XMLID_104_" class="st9" cx="57.7" cy="72.5" r="0.7"/>
		<circle id="XMLID_103_" class="st9" cx="55.9" cy="68.1" r="0.7"/>
		<circle id="XMLID_102_" class="st9" cx="59.5" cy="71.7" r="0.7"/>
		<circle id="XMLID_101_" class="st9" cx="55.1" cy="69.9" r="0.7"/>
		<circle id="XMLID_100_" class="st9" cx="60.2" cy="69.9" r="0.7"/>
		<circle id="XMLID_99_" class="st9" cx="55.9" cy="71.7" r="0.7"/>
		<circle id="XMLID_98_" class="st9" cx="59.5" cy="68.1" r="0.7"/>
	</g>
</g>
<g id="XMLID_2_">
	<path id="XMLID_93_" class="st2" d="M19.2,106h-1.3l-0.2,0.7h-0.9L18,103h1l1.3,3.7h-0.9L19.2,106z M18.5,103.9l-0.4,1.4h0.9
		L18.5,103.9z"/>
	<path id="XMLID_91_" class="st2" d="M22,106.7c-0.8,0-1.4-0.4-1.4-1.1h0.9c0,0.3,0.2,0.4,0.4,0.4c0.3,0,0.4-0.1,0.4-0.3
		c0-0.7-1.8-0.3-1.8-1.6c0-0.7,0.6-1.1,1.3-1.1c0.8,0,1.3,0.4,1.3,1.1h-0.9c0-0.2-0.2-0.4-0.4-0.4c-0.2,0-0.4,0.1-0.4,0.3
		c0,0.6,1.8,0.4,1.8,1.6C23.3,106.2,22.8,106.7,22,106.7z"/>
	<path id="XMLID_87_" class="st2" d="M25.5,106.7h-1.7V103h1.6c0.7,0,1.2,0.4,1.2,1c0,0.4-0.3,0.7-0.6,0.8c0.4,0.1,0.7,0.5,0.7,0.9
		C26.7,106.3,26.2,106.7,25.5,106.7z M25.3,103.7h-0.6v0.8h0.6c0.3,0,0.4-0.1,0.4-0.4C25.7,103.8,25.5,103.7,25.3,103.7z
		 M25.3,105.1h-0.6v0.8h0.6c0.3,0,0.5-0.1,0.5-0.4S25.6,105.1,25.3,105.1z"/>
	<path id="XMLID_85_" class="st2" d="M29.4,103.7h-1.3v0.7h1.2v0.7h-1.2v0.8h1.3v0.7h-2.2V103h2.2V103.7z"/>
	<path id="XMLID_83_" class="st2" d="M31.2,106.7c-0.8,0-1.4-0.4-1.4-1.1h0.9c0,0.3,0.2,0.4,0.4,0.4c0.3,0,0.4-0.1,0.4-0.3
		c0-0.7-1.8-0.3-1.8-1.6c0-0.7,0.6-1.1,1.3-1.1c0.8,0,1.3,0.4,1.3,1.1h-0.9c0-0.2-0.2-0.4-0.4-0.4c-0.2,0-0.4,0.1-0.4,0.3
		c0,0.6,1.8,0.4,1.8,1.6C32.5,106.2,32.1,106.7,31.2,106.7z"/>
	<path id="XMLID_81_" class="st2" d="M32.9,103h2.8v0.7h-0.9v3h-0.9v-3h-0.9V103z"/>
	<path id="XMLID_78_" class="st2" d="M37.8,106.7c-1,0-1.8-0.8-1.8-1.9c0-1.1,0.8-1.9,1.8-1.9c1,0,1.8,0.8,1.8,1.9
		C39.6,105.9,38.8,106.7,37.8,106.7z M37.8,105.9c0.6,0,0.9-0.4,0.9-1.1c0-0.7-0.4-1.1-0.9-1.1c-0.6,0-0.9,0.4-0.9,1.1
		C36.8,105.4,37.2,105.9,37.8,105.9z"/>
	<path id="XMLID_76_" class="st2" d="M41.4,106.7c-0.8,0-1.4-0.4-1.4-1.1h0.9c0,0.3,0.2,0.4,0.4,0.4c0.3,0,0.4-0.1,0.4-0.3
		c0-0.7-1.8-0.3-1.8-1.6c0-0.7,0.6-1.1,1.3-1.1c0.8,0,1.3,0.4,1.3,1.1h-0.9c0-0.2-0.2-0.4-0.4-0.4c-0.2,0-0.4,0.1-0.4,0.3
		c0,0.6,1.8,0.4,1.8,1.6C42.7,106.2,42.2,106.7,41.4,106.7z"/>
	<path id="XMLID_73_" class="st2" d="M45.8,103c0.9,0,1.3,0.5,1.3,1.2c0,0.5-0.2,0.9-0.8,1.1l0.8,1.5h-1l-0.7-1.4h-0.2v1.4h-0.9V103
		H45.8z M45.7,103.7h-0.5v0.9h0.5c0.3,0,0.5-0.2,0.5-0.5C46.2,103.9,46,103.7,45.7,103.7z"/>
	<path id="XMLID_71_" class="st2" d="M49.8,103.7h-1.3v0.7h1.2v0.7h-1.2v0.8h1.3v0.7h-2.2V103h2.2V103.7z"/>
	<path id="XMLID_69_" class="st2" d="M50.4,103h1l1,2.6l1-2.6h1v3.7h-0.9v-2.2l-0.8,2.2h-0.7l-0.8-2.2v2.2h-0.9V103z"/>
	<path id="XMLID_66_" class="st2" d="M56.7,106.7c-1,0-1.8-0.8-1.8-1.9c0-1.1,0.8-1.9,1.8-1.9c1,0,1.8,0.8,1.8,1.9
		C58.6,105.9,57.8,106.7,56.7,106.7z M56.7,105.9c0.6,0,0.9-0.4,0.9-1.1c0-0.7-0.4-1.1-0.9-1.1c-0.6,0-0.9,0.4-0.9,1.1
		C55.8,105.4,56.2,105.9,56.7,105.9z"/>
	<path id="XMLID_64_" class="st2" d="M61.5,103h0.9l-1.3,3.7h-1.1l-1.3-3.7h0.9l0.9,2.8L61.5,103z"/>
	<path id="XMLID_61_" class="st2" d="M65,106h-1.3l-0.2,0.7h-0.9l1.3-3.7h1l1.3,3.7h-0.9L65,106z M64.3,103.9l-0.4,1.4h0.9
		L64.3,103.9z"/>
	<path id="XMLID_59_" class="st2" d="M67.4,103v3h1.1v0.7h-2V103H67.4z"/>
	<path id="XMLID_57_" class="st2" d="M69,103h0.9v3.7H69V103z"/>
	<path id="XMLID_55_" class="st2" d="M71.8,106.7c-0.8,0-1.4-0.4-1.4-1.1h0.9c0,0.3,0.2,0.4,0.4,0.4c0.3,0,0.4-0.1,0.4-0.3
		c0-0.7-1.8-0.3-1.8-1.6c0-0.7,0.6-1.1,1.3-1.1c0.8,0,1.3,0.4,1.3,1.1h-0.9c0-0.2-0.2-0.4-0.4-0.4c-0.2,0-0.4,0.1-0.4,0.3
		c0,0.6,1.8,0.4,1.8,1.6C73.1,106.2,72.6,106.7,71.8,106.7z"/>
	<path id="XMLID_53_" class="st2" d="M73.4,103h2.8v0.7h-0.9v3h-0.9v-3h-0.9V103z"/>
	<path id="XMLID_51_" class="st2" d="M77.9,106.7c-0.8,0-1.4-0.4-1.4-1.1h0.9c0,0.3,0.2,0.4,0.4,0.4c0.3,0,0.4-0.1,0.4-0.3
		c0-0.7-1.8-0.3-1.8-1.6c0-0.7,0.6-1.1,1.3-1.1c0.8,0,1.3,0.4,1.3,1.1h-0.9c0-0.2-0.2-0.4-0.4-0.4c-0.2,0-0.4,0.1-0.4,0.3
		c0,0.6,1.8,0.4,1.8,1.6C79.2,106.2,78.7,106.7,77.9,106.7z"/>
	<path id="XMLID_48_" class="st2" d="M83,106h-1.3l-0.2,0.7h-0.9l1.3-3.7h1l1.3,3.7h-0.9L83,106z M82.4,103.9l-0.4,1.4h0.9
		L82.4,103.9z"/>
	<path id="XMLID_46_" class="st2" d="M87.8,103v3.7h-0.9l-1.5-2.3v2.3h-0.9V103h0.9l1.5,2.3V103H87.8z"/>
	<path id="XMLID_43_" class="st2" d="M91.6,104.8c0,1.1-0.7,1.9-1.9,1.9h-1.3V103h1.3C90.9,103,91.6,103.7,91.6,104.8z M89.7,105.9
		c0.7,0,1-0.4,1-1.1c0-0.7-0.4-1.1-1-1.1h-0.4v2.2H89.7z"/>
	<path id="XMLID_40_" class="st2" d="M96.4,104.8c0,1.1-0.7,1.9-1.9,1.9h-1.3V103h1.3C95.7,103,96.4,103.7,96.4,104.8z M94.5,105.9
		c0.7,0,1-0.4,1-1.1c0-0.7-0.4-1.1-1-1.1h-0.4v2.2H94.5z"/>
	<path id="XMLID_38_" class="st2" d="M99.1,103.7h-1.3v0.7h1.2v0.7h-1.2v0.8h1.3v0.7h-2.2V103h2.2V103.7z"/>
	<path id="XMLID_36_" class="st2" d="M99.6,103h1l1,2.6l1-2.6h1v3.7h-0.9v-2.2l-0.8,2.2h-0.7l-0.8-2.2v2.2h-0.9V103z"/>
	<path id="XMLID_33_" class="st2" d="M106,106.7c-1,0-1.8-0.8-1.8-1.9c0-1.1,0.8-1.9,1.8-1.9c1,0,1.8,0.8,1.8,1.9
		C107.8,105.9,107,106.7,106,106.7z M106,105.9c0.6,0,0.9-0.4,0.9-1.1c0-0.7-0.4-1.1-0.9-1.1c-0.6,0-0.9,0.4-0.9,1.1
		C105.1,105.4,105.4,105.9,106,105.9z"/>
	<path id="XMLID_31_" class="st2" d="M109.2,103v3h1.1v0.7h-2V103H109.2z"/>
	<path id="XMLID_29_" class="st2" d="M110.8,103h0.9v3.7h-0.9V103z"/>
	<path id="XMLID_27_" class="st2" d="M112.1,103h2.8v0.7h-0.9v3H113v-3h-0.9V103z"/>
	<path id="XMLID_25_" class="st2" d="M115.3,103h0.9v3.7h-0.9V103z"/>
	<path id="XMLID_22_" class="st2" d="M118.5,106.7c-1,0-1.8-0.8-1.8-1.9c0-1.1,0.8-1.9,1.8-1.9c1,0,1.8,0.8,1.8,1.9
		C120.3,105.9,119.5,106.7,118.5,106.7z M118.5,105.9c0.6,0,0.9-0.4,0.9-1.1c0-0.7-0.4-1.1-0.9-1.1c-0.6,0-0.9,0.4-0.9,1.1
		C117.5,105.4,117.9,105.9,118.5,105.9z"/>
	<path id="XMLID_20_" class="st2" d="M124,103v3.7h-0.9l-1.5-2.3v2.3h-0.9V103h0.9l1.5,2.3V103H124z"/>
	<path id="XMLID_18_" class="st2" d="M125.9,106.7c-0.8,0-1.4-0.4-1.4-1.1h0.9c0,0.3,0.2,0.4,0.4,0.4c0.3,0,0.4-0.1,0.4-0.3
		c0-0.7-1.8-0.3-1.8-1.6c0-0.7,0.6-1.1,1.3-1.1c0.8,0,1.3,0.4,1.3,1.1h-0.9c0-0.2-0.2-0.4-0.4-0.4c-0.2,0-0.4,0.1-0.4,0.3
		c0,0.6,1.8,0.4,1.8,1.6C127.2,106.2,126.7,106.7,125.9,106.7z"/>
	<path id="XMLID_16_" class="st2" d="M129.7,103v3h1.1v0.7h-2V103H129.7z"/>
	<path id="XMLID_14_" class="st2" d="M131.3,103h0.9v3.7h-0.9V103z"/>
	<path id="XMLID_12_" class="st2" d="M132.8,103h1l1,2.6l1-2.6h1v3.7h-0.9v-2.2l-0.8,2.2h-0.7l-0.8-2.2v2.2h-0.9V103z"/>
	<path id="XMLID_10_" class="st2" d="M137.4,103h0.9v3.7h-0.9V103z"/>
	<path id="XMLID_8_" class="st2" d="M138.7,103h2.8v0.7h-0.9v3h-0.9v-3h-0.9V103z"/>
	<path id="XMLID_6_" class="st2" d="M144.1,103.7h-1.3v0.7h1.2v0.7h-1.2v0.8h1.3v0.7h-2.2V103h2.2V103.7z"/>
	<path id="XMLID_3_" class="st2" d="M147.9,104.8c0,1.1-0.7,1.9-1.9,1.9h-1.3V103h1.3C147.2,103,147.9,103.7,147.9,104.8z
		 M146,105.9c0.7,0,1-0.4,1-1.1c0-0.7-0.4-1.1-1-1.1h-0.4v2.2H146z"/>
</g>
</svg>
